# File created by Blade
# Date/Time:  Tue Jan 27 18:35:03 2015
# Frame Rate: 120.000 fps
#------------------------------------------------------
:FULLY-SPECIFIED
:DEGREES
1496
root -3.814162 31.445020 -1.996337 -14.039866 13.450218 -15.665532
Spine 14.360905 -13.355065 -3.334476
Head 12.473747 -3.820900 22.158413
LeftShoulder -12.543791 11.105245 18.878399
LeftArm 31.979789 -21.153613 -74.808590
LeftForeArm 124.068475 -0.000000 134.804632
LeftHand 9.778229 -0.000000 -6.163186
LeftHandThumb1 -26.253704 0.000000 33.147579
RightShoulder -16.806130 -9.749649 -3.982957
RightArm 2.754654 -35.224469 83.257031
RightForeArm -23.696726 -0.000000 30.165582
RightHand -13.832691 -0.000000 12.142414
RightHandThumb1 -24.326973 -0.000000 -32.862282
LeftUpLeg -3.543712 4.577683 9.970342
LeftLeg 37.106319 -0.000000 -0.000000
LeftFoot -31.995919 8.636014 -18.438130
LeftToeBase 9.936142 -0.000000 -0.000000
RightUpLeg -91.748598 3.344249 26.706853
RightLeg 87.051303 -0.000000 -0.000000
RightFoot 1.988289 -16.328635 17.493446
RightToeBase 4.427503 -0.000000 -0.000000
1497
root -3.820263 31.445622 -1.995730 -14.025496 13.446535 -15.673216
Spine 14.339829 -13.366171 -3.320075
Head 12.447318 -3.777884 22.156287
LeftShoulder -12.576465 11.100922 18.846089
LeftArm 32.013094 -21.104461 -74.806003
LeftForeArm 124.131198 -0.000000 134.772938
LeftHand 9.750318 -0.000000 -6.192538
LeftHandThumb1 -26.253704 0.000000 33.147579
RightShoulder -16.788661 -9.752017 -4.012044
RightArm 2.698398 -35.169918 83.303899
RightForeArm -23.711659 -0.000000 30.142882
RightHand -13.795690 0.000000 12.114835
RightHandThumb1 -24.326973 -0.000000 -32.862282
LeftUpLeg -3.566597 4.547864 9.979518
LeftLeg 37.108876 -0.000000 -0.000000
LeftFoot -31.991846 8.683060 -18.447024
LeftToeBase 9.909921 -0.000000 -0.000000
RightUpLeg -91.725428 3.381213 26.667789
RightLeg 87.003284 -0.000000 -0.000000
RightFoot 1.971424 -16.200899 17.440263
RightToeBase 4.488168 -0.000000 -0.000000
1498
root -3.825540 31.445400 -1.994668 -14.014897 13.431903 -15.675960
Spine 14.321236 -13.350971 -3.300480
Head 12.403108 -3.775626 22.116087
LeftShoulder -12.598283 11.113518 18.830772
LeftArm 32.067559 -21.032336 -74.839092
LeftForeArm 124.193036 0.000000 134.743793
LeftHand 9.752344 -0.000000 -6.199832
LeftHandThumb1 -26.253704 0.000000 33.147579
RightShoulder -16.776569 -9.758866 -4.048527
RightArm 2.644320 -35.135196 83.351392
RightForeArm -23.701799 0.000000 30.122969
RightHand -13.825147 -0.000000 12.071882
RightHandThumb1 -24.326973 -0.000000 -32.862282
LeftUpLeg -3.578446 4.518545 9.980928
LeftLeg 37.113617 -0.000000 -0.000000
LeftFoot -32.009283 8.739104 -18.456804
LeftToeBase 9.918611 -0.000000 -0.000000
RightUpLeg -91.702711 3.415914 26.654994
RightLeg 86.954553 -0.000000 -0.000000
RightFoot 1.986180 -16.122074 17.377782
RightToeBase 4.571407 -0.000000 -0.000000
1499
root -3.831013 31.445308 -1.994384 -14.001935 13.405375 -15.676395
Spine 14.305234 -13.318041 -3.277175
Head 12.351839 -3.778689 22.074928
LeftShoulder -12.610728 11.104713 18.813662
LeftArm 32.105583 -20.960406 -74.822844
LeftForeArm 124.229284 -0.000000 134.711442
LeftHand 9.774293 -0.000000 -6.201407
LeftHandThumb1 -26.253704 0.000000 33.147579
RightShoulder -16.761008 -9.759921 -4.082759
RightArm 2.585481 -35.100897 83.394819
RightForeArm -23.709090 -0.000000 30.111141
RightHand -13.845635 -0.000000 12.086552
RightHandThumb1 -24.326973 -0.000000 -32.862282
LeftUpLeg -3.591354 4.503782 9.982830
LeftLeg 37.121228 -0.000000 -0.000000
LeftFoot -32.013703 8.803790 -18.448271
LeftToeBase 9.928835 -0.000000 -0.000000
RightUpLeg -91.669883 3.464134 26.637373
RightLeg 86.890905 -0.000000 -0.000000
RightFoot 1.989106 -16.050323 17.377079
RightToeBase 4.640176 -0.000000 -0.000000
1500
root -3.835193 31.444701 -1.994758 -13.988869 13.385337 -15.678337
Spine 14.289528 -13.285842 -3.247016
Head 12.297039 -3.784236 22.036721
LeftShoulder -12.624967 11.103794 18.789188
LeftArm 32.172500 -20.864737 -74.797890
LeftForeArm 124.259120 -0.000000 134.676854
LeftHand 9.783209 -0.000000 -6.227539
LeftHandThumb1 -26.253704 0.000000 33.147579
RightShoulder -16.742755 -9.747473 -4.123631
RightArm 2.517692 -35.077509 83.442487
RightForeArm -23.723665 -0.000000 30.094038
RightHand -13.834660 0.000000 12.126732
RightHandThumb1 -24.326973 -0.000000 -32.862282
LeftUpLeg -3.606302 4.456180 9.978296
LeftLeg 37.127851 -0.000000 -0.000000
LeftFoot -32.034849 8.853820 -18.498016
LeftToeBase 9.921108 -0.000000 -0.000000
RightUpLeg -91.639830 3.497967 26.621982
RightLeg 86.823586 -0.000000 -0.000000
RightFoot 2.090560 -15.984449 17.295911
RightToeBase 4.351399 -0.000000 -0.000000
1501
root -3.839843 31.444148 -1.994248 -13.988141 13.361416 -15.683315
Spine 14.289665 -13.243973 -3.219885
Head 12.237227 -3.793095 22.011581
LeftShoulder -12.638728 11.104395 18.786952
LeftArm 32.236448 -20.723294 -74.775384
LeftForeArm 124.314492 0.000000 134.643568
LeftHand 9.813566 -0.000000 -6.385796
LeftHandThumb1 -26.253704 0.000000 33.147579
RightShoulder -16.733786 -9.743980 -4.156374
RightArm 2.481540 -35.098700 83.463239
RightForeArm -23.676021 -0.000000 30.071794
RightHand -13.853847 -0.000000 12.179496
RightHandThumb1 -24.326973 -0.000000 -32.862282
LeftUpLeg -3.607108 4.428160 9.984826
LeftLeg 37.132679 -0.000000 -0.000000
LeftFoot -32.056405 8.901695 -18.522003
LeftToeBase 9.949271 -0.000000 -0.000000
RightUpLeg -91.593953 3.525161 26.623386
RightLeg 86.752752 -0.000000 -0.000000
RightFoot 2.108124 -15.945075 17.293390
RightToeBase 4.334393 -0.000000 -0.000000
1502
root -3.842564 31.443517 -1.994531 -13.980581 13.336885 -15.678037
Spine 14.278436 -13.199409 -3.189351
Head 12.185811 -3.790991 21.987737
LeftShoulder -12.643249 11.079846 18.778921
LeftArm 32.279086 -20.579793 -74.724437
LeftForeArm 124.409973 -0.000000 134.584473
LeftHand 9.801631 0.000000 -6.288752
LeftHandThumb1 -26.253704 0.000000 33.147579
RightShoulder -16.706349 -9.758999 -4.196735
RightArm 2.462128 -35.126341 83.478631
RightForeArm -23.647213 -0.000000 30.044844
RightHand -13.825491 -0.000000 12.247461
RightHandThumb1 -24.326973 -0.000000 -32.862282
LeftUpLeg -3.608736 4.405598 9.976040
LeftLeg 37.130162 -0.000000 -0.000000
LeftFoot -32.077786 8.959676 -18.536069
LeftToeBase 9.956290 -0.000000 -0.000000
RightUpLeg -91.546705 3.550967 26.611765
RightLeg 86.676014 -0.000000 -0.000000
RightFoot 2.145547 -15.914022 17.201278
RightToeBase 4.403906 -0.000000 -0.000000
1503
root -3.845157 31.442480 -1.995212 -13.975975 13.326759 -15.672156
Spine 14.277135 -13.162278 -3.163086
Head 12.126258 -3.813781 21.947990
LeftShoulder -12.647073 11.069289 18.772932
LeftArm 32.358460 -20.419021 -74.682450
LeftForeArm 124.522933 -0.000000 134.532953
LeftHand 9.769807 -0.000000 -6.158709
LeftHandThumb1 -26.253704 0.000000 33.147579
RightShoulder -16.684920 -9.761794 -4.234363
RightArm 2.444333 -35.193459 83.486704
RightForeArm -23.592622 0.000000 30.014585
RightHand -13.791463 0.000000 12.287002
RightHandThumb1 -24.326973 -0.000000 -32.862282
LeftUpLeg -3.611178 4.369271 9.963934
LeftLeg 37.130334 -0.000000 -0.000000
LeftFoot -32.099956 8.988544 -18.582431
LeftToeBase 9.941903 -0.000000 -0.000000
RightUpLeg -91.504210 3.560303 26.595465
RightLeg 86.600003 -0.000000 -0.000000
RightFoot 2.186687 -15.910961 17.125957
RightToeBase 4.385966 -0.000000 -0.000000
